<?xml version="1.0" encoding="utf-8"?>
<!-- Generator: Adobe Illustrator 27.2.0, SVG Export Plug-In . SVG Version: 6.00 Build 0)  -->
<svg version="1.1" id="Layer_1" xmlns="http://www.w3.org/2000/svg" xmlns:xlink="http://www.w3.org/1999/xlink" x="0px" y="0px"
	 viewBox="0 0 841.89 595.28" style="enable-background:new 0 0 841.89 595.28;" xml:space="preserve">
<style type="text/css">
	.st0{fill:#FFFFFF;}
</style>
<g>
	<path class="st0" d="M459.48,387.12c16.18,3.05,31.45,1.82,43.49-0.54c8.53-1.18,16.73-3.7,24.45-7.36
		c0.69-0.3,1.06-0.48,1.06-0.48l-0.04-0.01c35.64-17.48,60.77-59.61,60.77-108.84c0-11.26-1.38-22.12-3.84-32.43l0.06-0.06
		c-0.27-1.05-0.56-2.06-0.84-3.09c-0.64-2.35-1.32-4.65-2.03-6.9c-0.37-1.16-0.73-2.33-1.13-3.46c-0.24-0.71-0.49-1.4-0.74-2.09
		c-9.66-27.12-24.28-46.09-36.99-58.53c-1.67-1.64-3.31-3.16-4.9-4.57c-1.69-1.5-3.32-2.88-4.87-4.14
		c-9.24-7.48-15.86-10.77-15.86-10.77s5.18,6.68,11.62,17.94c1.97,3.44,4.04,7.3,6.13,11.55c5.63,11.44,11.29,25.59,14.81,41.3
		c1.75,7.8,2.97,15.97,3.4,24.4c-0.1,3.14-1.95,48.77-24.83,81.06c-11.23,14.39-24.21,23.7-34.75,29.43
		c-3.25,1.93-6.66,3.51-10.15,4.84c-1.05,0.43-2.04,0.82-2.95,1.15c-5.68,1.81-11.6,2.87-17.74,2.87c-3.78,0-7.48-0.4-11.1-1.1
		c-11.91-3.57-21.94-10.43-29.94-19.73c8.74,0.01,16.85-0.98,23.86-2.35c8.53-1.18,16.73-3.7,24.45-7.36
		c0.69-0.3,1.06-0.48,1.06-0.48l-0.04-0.01c18.97-9.31,34.93-25.61,45.72-46.25c19.7-41.8,21.3-90.29-9.79-140.85
		c-17.85-24.06-43.77-39.23-72.66-39.23c-12.91,0-25.23,3.03-36.5,8.53c-15.93,7.77-28.58,20.63-37.24,35.98
		c12.61-12.68,28.67-20.31,46.17-20.31c40.53,0,73.39,40.75,73.39,91.01s-32.86,91.01-73.39,91.01c-40.53,0-73.39-40.75-73.39-91.01
		c0-18.64,4.54-35.96,12.29-50.39c2.49-11.59,6.99-25.31,15.19-37.02l-0.04-0.01c0.09-0.11,0.18-0.21,0.27-0.32
		c3.49-4.92,7.64-9.45,12.56-13.31c5.21-4.63,10.43-8.32,15.28-11.3c-65.94-2.87-97.8,47.45-97.8,88.92c0,48.75,0,50.5,0,124.28
		s-18.11,114.51-18.11,114.51h50.99c0,0,18.55-25.81,18.55-87.73c0-6.32,0-13.01,0-19.81c0-15.69,11.89-9.43,17.15-3.56l94.8,105.67
		c2.8,3.43,5.72,6.72,8.81,9.82l0.04,0.04l0-0.01c22.65,22.72,54.18,35.09,110.73,15.75v-58.34
		C574.9,393.46,493.51,414.36,459.48,387.12z"/>
	<path class="st0" d="M387.02,200.74h52.58c4.45,0,8.06-3.61,8.06-8.06c0-4.45-3.61-8.06-8.06-8.06h-52.58
		c-4.45,0-8.06,3.61-8.06,8.06C378.97,197.14,382.57,200.74,387.02,200.74z"/>
	<path class="st0" d="M387.02,234.83h37.14c4.45,0,8.06-3.61,8.06-8.06c0-4.45-3.61-8.06-8.06-8.06h-37.14
		c-4.45,0-8.06,3.61-8.06,8.06C378.97,231.22,382.57,234.83,387.02,234.83z"/>
	<path class="st0" d="M387.02,268.91h12.52c4.45,0,8.06-3.61,8.06-8.06c0-4.45-3.61-8.06-8.06-8.06h-12.52
		c-4.45,0-8.06,3.61-8.06,8.06C378.97,265.3,382.57,268.91,387.02,268.91z"/>
</g>
</svg>
